<svg width="24" height="24" viewBox="0 0 24 24" fill="none" xmlns="http://www.w3.org/2000/svg">
<path d="M12.367 6.797L14.9235 8.27287L14.9425 8.28438L17.6618 9.85462C17.7717 9.91849 17.847 10.052 17.847 10.1717V16.2881L20.0623 17.5671L19.6992 16.154C19.6492 15.9584 19.7677 15.7593 19.9633 15.7092C20.159 15.6592 20.358 15.7777 20.4081 15.9733L20.9823 18.2081C21.0128 18.3036 21.0048 18.4107 20.9507 18.5039C20.8983 18.5942 20.8138 18.6535 20.72 18.6765L18.4875 19.2996C18.2924 19.3537 18.091 19.2392 18.0369 19.0442C17.9834 18.8491 18.0973 18.6477 18.2924 18.5936L19.6958 18.2018L17.4799 16.9227L14.9235 18.3986L14.9034 18.4095L12.2128 19.9625C12.153 20.0051 12.0793 20.0304 11.9999 20.0304C11.9205 20.0304 11.8475 20.0051 11.787 19.9625L9.07695 18.398L9.07638 18.3986L6.51992 16.9227L4.30409 18.2018L5.70747 18.5936C5.90252 18.6477 6.01645 18.8491 5.96294 19.0442C5.90885 19.2392 5.70747 19.3532 5.51241 19.2996L3.2799 18.6765C3.18611 18.6541 3.10153 18.5942 3.04916 18.5039C2.9968 18.4135 2.9876 18.3094 3.01522 18.2162L3.59176 15.9733C3.64182 15.7777 3.8409 15.6597 4.03653 15.7092C4.23217 15.7593 4.3507 15.9584 4.30064 16.154L3.93757 17.5671L6.15282 16.2881V10.1717C6.15282 10.0232 6.24085 9.89547 6.36744 9.83736L9.07638 8.27345L9.0758 8.27287L11.6323 6.797V4.23881L10.592 5.25783C10.4481 5.39938 10.2156 5.39765 10.0741 5.2538C9.93256 5.10995 9.93428 4.8775 10.0781 4.73595L11.7232 3.12486C11.7905 3.04833 11.8895 3 11.9994 3C12.1093 3 12.2082 3.04833 12.2755 3.12486L13.9206 4.73595C14.0644 4.8775 14.0667 5.10995 13.9246 5.2538C13.7831 5.39765 13.5506 5.39995 13.4068 5.25783L12.3665 4.23881V6.797H12.367ZM8.9354 14.6816C9.11032 14.5803 9.33473 14.6401 9.43599 14.8151C9.53726 14.99 9.47742 15.2144 9.3025 15.3156L7.25296 16.4992L9.44347 17.7639L9.4429 17.7645L11.6323 19.0286V13.5457L6.88702 10.8063V15.8646L8.93483 14.6821L8.9354 14.6816ZM14.6974 15.3156C14.5224 15.2144 14.4626 14.99 14.5639 14.8151C14.6651 14.6401 14.8895 14.5803 15.0645 14.6816L17.1123 15.864V10.8057L12.367 13.5452V19.0281L14.5374 17.7749L14.5564 17.7634L16.7469 16.4986L14.6974 15.3151V15.3156ZM12.367 10.0088C12.367 10.2114 12.2025 10.3759 11.9999 10.3759C11.7974 10.3759 11.6328 10.2114 11.6328 10.0088V7.6434L9.44405 8.90695L9.44347 8.90638L7.25181 10.1717L11.9999 12.9134L16.7481 10.1717L14.5765 8.91789L14.5564 8.90695L12.3676 7.6434V10.0088H12.367Z" fill="black"/>
</svg>
