<svg width="318" height="264" viewBox="0 0 318 264" fill="none" xmlns="http://www.w3.org/2000/svg">
<path d="M154.604 139.674C154.523 140.548 154.262 141.395 153.839 142.162C153.415 142.93 152.839 143.6 152.145 144.132C150.88 145.106 149.297 145.561 147.712 145.407C146.468 145.287 145.287 144.799 144.319 144.003C143.351 143.207 142.638 142.139 142.272 140.936C141.906 139.732 141.902 138.446 142.261 137.24C142.621 136.034 143.327 134.962 144.29 134.161C145.254 133.359 146.432 132.863 147.675 132.736C148.919 132.609 150.171 132.856 151.275 133.446C152.379 134.036 153.285 134.943 153.877 136.051C154.47 137.16 154.723 138.42 154.604 139.674Z" fill="#335284"/>
<path d="M159.555 243.798L73.4957 179.046" stroke="#FAFAFA" stroke-width="4"/>
<path fill-rule="evenodd" clip-rule="evenodd" d="M140.486 69.9247L232.384 125.567L140.486 69.9247Z" fill="#FAFAFA"/>
<path d="M140.486 69.9247L232.384 125.567" stroke="#FAFAFA" stroke-width="4"/>
<path d="M161.85 239.721L256.16 177.711" stroke="#FAFAFA" stroke-width="4"/>
<path d="M88.3869 92.6969L57.6119 150.706" stroke="#FAFAFA" stroke-width="4"/>
<path fill-rule="evenodd" clip-rule="evenodd" d="M303.829 69.9247L286.382 113.418L303.829 69.9247Z" fill="#FAFAFA"/>
<path d="M303.829 69.9247L286.382 113.418" stroke="#FAFAFA" stroke-width="4"/>
<path fill-rule="evenodd" clip-rule="evenodd" d="M235.975 25.0885L302.868 65.7426L235.975 25.0885Z" fill="#70D6F5"/>
<path d="M235.975 25.0885L302.868 65.7426" stroke="#FAFAFA" stroke-width="4"/>
<path d="M24.1533 23.0075L88.1357 45.0208" stroke="#FAFAFA" stroke-width="4"/>
<path d="M310.818 150.913C310.164 157.745 308.033 164.351 304.576 170.266C301.12 176.18 296.421 181.262 290.809 185.154C285.197 189.045 278.807 191.653 272.088 192.794C265.371 193.934 258.487 193.58 251.918 191.757C245.351 189.933 239.258 186.684 234.067 182.237C228.879 177.79 224.716 172.253 221.874 166.015C219.035 159.776 217.581 152.987 217.621 146.123C217.66 139.259 219.188 132.487 222.101 126.281C230.285 108.89 248.635 97.6655 268.752 99.5998C294.438 102.068 313.273 125.043 310.818 150.913Z" fill="#FAFAFA"/>
<path d="M38.8532 24.5489C38.5947 27.2776 37.4693 29.8495 35.644 31.8822C33.8188 33.9151 31.3912 35.3003 28.722 35.832C26.053 36.3636 23.2849 36.0135 20.8292 34.8335C18.3734 33.6536 16.3609 31.7068 15.0912 29.2825C14.8175 28.7623 14.5806 28.2233 14.3823 27.6696C13.7382 25.874 13.503 23.9553 13.6944 22.0557C13.8858 20.1562 14.4987 18.3243 15.4878 16.6956C16.4769 15.0669 17.8167 13.6831 19.4084 12.6466C20.9999 11.6102 22.8025 10.9475 24.6826 10.7078C26.5628 10.468 28.4725 10.6572 30.2702 11.2615C32.068 11.8657 33.7078 12.8695 35.0685 14.1985C36.4292 15.5276 37.4758 17.1479 38.1309 18.9395C38.7861 20.7311 39.0328 22.6482 38.8532 24.5489Z" fill="#FAFAFA"/>
<path d="M172.711 242.952C172.482 245.386 171.575 247.708 170.097 249.646C168.617 251.586 166.625 253.065 164.349 253.914C162.071 254.764 159.605 254.949 157.228 254.448C154.852 253.948 152.663 252.783 150.916 251.086C149.492 249.705 148.4 248.013 147.727 246.14C147.07 244.307 146.828 242.348 147.025 240.408C147.22 238.469 147.846 236.599 148.855 234.936C149.864 233.273 151.233 231.86 152.858 230.802C154.482 229.744 156.322 229.067 158.242 228.822C160.162 228.577 162.112 228.77 163.947 229.387C165.783 230.004 167.455 231.028 168.845 232.385C170.234 233.742 171.303 235.396 171.973 237.225C172.642 239.055 172.894 241.011 172.711 242.952Z" fill="#FAFAFA"/>
<path d="M317.397 67.3654C317.139 70.0943 316.012 72.6664 314.189 74.6995C312.364 76.7324 309.936 78.1179 307.267 78.6498C304.597 79.1819 301.829 78.8317 299.373 77.6519C296.917 76.4721 294.905 74.5253 293.635 72.101C293.361 71.5804 293.125 71.0414 292.924 70.4881C292.278 68.692 292.044 66.7728 292.235 64.8726C292.426 62.9725 293.038 61.1397 294.027 59.5104C295.015 57.881 296.356 56.4964 297.947 55.4594C299.54 54.4223 301.342 53.7592 303.223 53.5194C305.105 53.2793 307.015 53.4686 308.813 54.0731C310.611 54.6774 312.251 55.6816 313.612 57.0112C314.973 58.3409 316.02 59.9617 316.676 61.754C317.33 63.5464 317.576 65.464 317.397 67.3654Z" fill="#FAFAFA"/>
<path d="M244.967 23.6225C244.803 25.3707 244.281 27.0657 243.433 28.6003C242.586 30.135 241.432 31.4757 240.044 32.5381C239.589 32.8884 239.112 33.2067 238.614 33.4904C236.245 34.8466 233.504 35.3943 230.8 35.0517C228.097 34.7093 225.574 33.4947 223.613 31.5898C222.219 30.2366 221.149 28.5792 220.49 26.7451C219.846 24.9495 219.612 23.031 219.803 21.1314C219.994 19.2319 220.606 17.4 221.594 15.7713C222.583 14.1426 223.924 12.7587 225.515 11.7222C227.106 10.6856 228.91 10.0229 230.789 9.78298C232.669 9.54306 234.579 9.73213 236.377 10.3362C238.175 10.9403 239.813 11.9439 241.176 13.2727C242.537 14.6016 243.582 16.2217 244.238 18.0132C244.894 19.8047 245.14 21.7217 244.961 23.6225H244.967Z" fill="#FAFAFA"/>
<path d="M218.95 122.401L220.153 120.197C220.659 119.096 221.108 117.971 221.5 116.824C222.107 115.025 221.894 112.459 224.55 110.037C227.207 107.615 223.278 108.283 221.951 109.4C220.844 110.331 219.944 112.971 218.844 113.566C218.592 113.208 218.393 112.815 218.253 112.4L215.847 101.04C215.811 100.858 215.713 100.695 215.569 100.58C215.423 100.466 215.242 100.408 215.059 100.417L214.618 100.431C214.511 100.437 214.407 100.465 214.311 100.514C214.216 100.563 214.131 100.631 214.064 100.714C213.996 100.798 213.946 100.895 213.919 100.999C213.889 101.103 213.883 101.211 213.899 101.318C214.269 103.748 215.555 110.979 215.425 110.983L215.159 111.11L211.469 99.6038C211.418 99.4221 211.302 99.2659 211.144 99.1647C210.985 99.0638 210.796 99.0251 210.611 99.0562L210.02 99.1554C209.917 99.1717 209.819 99.2088 209.732 99.2647C209.644 99.3205 209.569 99.3937 209.51 99.48C209.453 99.5661 209.411 99.6635 209.392 99.7661C209.372 99.8684 209.374 99.974 209.396 100.076C209.963 102.722 212.615 111.529 212.481 111.537L212.156 111.648L208.153 102.125C208.098 101.936 207.972 101.775 207.801 101.676C207.631 101.577 207.43 101.547 207.239 101.594L206.769 101.711C206.67 101.735 206.578 101.778 206.497 101.838C206.416 101.899 206.347 101.974 206.294 102.061C206.243 102.148 206.207 102.245 206.192 102.345C206.176 102.446 206.182 102.548 206.205 102.647L209.807 112.015L209.476 112.225L205.703 105.458C205.63 105.284 205.497 105.143 205.327 105.061C205.16 104.979 204.967 104.962 204.786 105.014L204.561 105.081C204.368 105.138 204.207 105.268 204.108 105.444C204.01 105.619 203.982 105.827 204.033 106.022C204.396 107.41 206.2 110.325 207.249 113.362C208.07 115.715 208.127 117.6 209.482 120.449C210.053 121.657 211.14 123.091 211.733 123.891" fill="#FFCCD7"/>
<path d="M287.367 187.379C278.61 192.382 268.483 194.4 258.493 193.134C248.505 191.868 239.189 187.385 231.935 180.352L232.498 165.804L214.421 162.797C211.753 162.058 209.433 160.386 207.879 158.08C206.326 155.774 205.638 152.986 205.942 150.215L207.421 121.659L221.703 122.651L222.097 126.285L224.304 145.466C224.304 145.466 239.246 147.348 259.637 152.608C279.486 157.728 285.333 175.486 287.367 187.379Z" fill="#385687"/>
<path d="M232.301 165.619L232.468 160.662" stroke="#FAFAFA" stroke-linecap="square"/>
<path d="M271.814 134.801C277.289 127.77 276.509 117.946 270.072 112.86C263.636 107.773 253.98 109.35 248.505 116.381C243.031 123.412 243.811 133.236 250.248 138.322C256.685 143.409 266.34 141.832 271.814 134.801Z" fill="#001833"/>
<path d="M250.234 158.293C249.159 157.509 248.368 156.394 247.98 155.116C247.59 153.838 247.625 152.467 248.078 151.211L255.187 131.547C255.429 130.749 255.831 130.009 256.366 129.373C256.9 128.736 257.56 128.216 258.3 127.844C259.042 127.472 259.85 127.255 260.677 127.208C261.504 127.161 262.331 127.283 263.109 127.568C263.889 127.853 264.599 128.295 265.204 128.866C265.807 129.438 266.289 130.127 266.62 130.892C266.951 131.656 267.124 132.481 267.128 133.315C267.132 134.15 266.968 134.976 266.645 135.744L259.535 155.411C259.21 156.302 258.686 157.106 258.003 157.76C257.319 158.413 256.494 158.898 255.594 159.176C254.693 159.455 253.739 159.52 252.81 159.366C251.881 159.211 250.998 158.842 250.234 158.287V158.293Z" fill="#FFCCD7"/>
<path d="M251.441 147.328L250.26 146.886C248.885 146.372 247.641 145.56 246.615 144.506C245.587 143.452 244.805 142.184 244.319 140.79C243.834 139.397 243.661 137.913 243.811 136.444C243.96 134.975 244.429 133.558 245.183 132.292L248.925 126.023C250.132 123.999 252.008 122.467 254.226 121.698C256.441 120.929 258.855 120.971 261.045 121.817C263.514 122.772 265.505 124.676 266.582 127.111C267.657 129.545 267.73 132.31 266.783 134.798L264.223 141.51C263.282 143.98 261.413 145.976 259.019 147.066C256.626 148.155 253.903 148.25 251.441 147.328Z" fill="#FFCCD7"/>
<path d="M252.385 129.58L247.263 133.77L249.273 135.291" stroke="#0C092A" stroke-linecap="square"/>
<path d="M253.686 132.54C254.283 132.54 254.767 132.053 254.767 131.451C254.767 130.85 254.283 130.362 253.686 130.362C253.089 130.362 252.605 130.85 252.605 131.451C252.605 132.053 253.089 132.54 253.686 132.54Z" fill="#0C092A"/>
<path d="M249.191 130.249C249.787 130.249 250.272 129.761 250.272 129.16C250.272 128.558 249.787 128.071 249.191 128.071C248.594 128.071 248.109 128.558 248.109 129.16C248.109 129.761 248.594 130.249 249.191 130.249Z" fill="#0C092A"/>
<path d="M281.964 164.027C281.964 164.027 276.978 176.603 267.266 171.016C251.187 161.765 254.49 149.6 259.023 144.035C260.828 141.819 263.355 140.837 265.992 140.032C258.326 133.221 262.095 127.797 262.095 127.797C262.095 127.797 241.592 126.47 248.222 116.671C254.852 106.873 266.695 108.156 272.972 112.412C287.564 122.308 282.598 132.394 285.927 136.107C304.806 157.182 281.964 164.027 281.964 164.027Z" fill="#001833"/>
<path d="M268.146 140.894C270.267 139.596 270.94 136.812 269.65 134.677C268.362 132.541 265.6 131.863 263.479 133.161L259.99 135.299C257.871 136.597 257.197 139.381 258.485 141.516C259.775 143.652 262.538 144.33 264.656 143.032L268.146 140.894Z" fill="#FFCCD7"/>
<path fill-rule="evenodd" clip-rule="evenodd" d="M267.193 136.377L262.242 139.406L267.193 136.377Z" fill="#0C092A"/>
<path d="M267.193 136.377L262.242 139.406" stroke="#0C092A" stroke-linecap="square"/>
<path d="M252.257 138.361C252.308 139.054 252.085 139.74 251.636 140.267C251.185 140.794 250.547 141.12 249.858 141.173C249.171 141.225 248.489 141.001 247.968 140.548C247.444 140.095 247.119 139.451 247.068 138.758C246.957 137.314 248.409 137.328 249.84 137.217C251.272 137.105 252.146 136.917 252.257 138.361Z" fill="#0C092A"/>
<path d="M161.535 54.7603C160.842 62.0224 158.579 69.0438 154.907 75.332C151.234 81.6199 146.241 87.0221 140.276 91.1594C134.312 95.2969 127.521 98.0693 120.38 99.2824C113.239 100.495 105.921 100.119 98.9401 98.1808C91.9587 96.2423 85.4831 92.7883 79.9671 88.0611C74.4514 83.3337 70.029 77.4478 67.0106 70.816C63.992 64.1845 62.4504 56.9676 62.4939 49.6719C62.5374 42.3762 64.1648 35.1786 67.2621 28.5839C75.9591 10.0986 95.4582 -1.82585 116.839 0.229721C144.129 2.85241 164.14 27.2684 161.535 54.7603Z" fill="#FAFAFA"/>
<path d="M143.951 88.383L142.227 89.7724C140.441 91.1446 138.566 92.3942 136.614 93.5125C130.833 96.8136 124.453 98.912 117.851 99.6834C111.25 100.455 104.563 99.883 98.1851 98.0024C91.8072 96.1219 85.8691 92.9708 80.7223 88.7355C75.5757 84.5004 71.3252 79.2675 68.2228 73.3468C76.1037 67.5111 89.2977 60.539 106.175 61.9621C134.404 64.355 143.951 88.383 143.951 88.383Z" fill="#305082"/>
<path d="M110.316 73.8169C109.998 73.8178 109.681 73.7988 109.366 73.76C107.272 73.5087 105.363 72.4299 104.058 70.7606C102.754 69.0914 102.161 66.9686 102.41 64.8589L106.177 32.9375C106.426 30.8275 107.498 28.9039 109.155 27.5899C109.976 26.9392 110.916 26.4579 111.921 26.1731C112.927 25.8885 113.978 25.806 115.015 25.9306C116.052 26.0552 117.054 26.3843 117.965 26.8994C118.876 27.4142 119.677 28.1049 120.323 28.9316C120.968 29.7584 121.446 30.7055 121.729 31.7183C122.012 32.7311 122.093 33.7903 121.97 34.8349L118.203 66.7563C117.972 68.7012 117.042 70.4932 115.589 71.7943C114.136 73.0953 112.26 73.8148 110.316 73.8169Z" fill="#FFCCD7"/>
<path d="M116.973 57.5094L118.659 57.6992C120.62 57.922 122.607 57.7066 124.476 57.0682C126.345 56.4298 128.052 55.3843 129.474 54.0057C130.897 52.6273 132.001 50.95 132.706 49.0928C133.412 47.2358 133.703 45.245 133.559 43.2617L132.843 33.4372C132.612 30.2642 131.278 27.2747 129.077 24.9937C126.875 22.7128 123.946 21.2861 120.804 20.9646C117.26 20.6024 113.718 21.6734 110.958 23.9421C108.197 26.2108 106.444 29.4913 106.085 33.0619L105.114 42.6946C104.756 46.2397 105.801 49.7835 108.021 52.5571C110.242 55.3308 113.458 57.1101 116.973 57.5094Z" fill="#FFCCD7"/>
<path d="M109.16 47.067L109.161 47.0657C111.484 45.626 112.209 42.5614 110.78 40.2208L109.312 37.8165C107.882 35.4761 104.841 34.746 102.518 36.1857L102.516 36.1868C100.193 37.6267 99.4679 40.6913 100.897 43.0317L102.365 45.4362C103.795 47.7766 106.836 48.5067 109.16 47.067Z" fill="#FFCCD7"/>
<path d="M103.073 40.074L107.033 44.2899" stroke="#001833" stroke-linecap="square"/>
<path d="M126.615 34.6853L126.894 42.5807L124.106 42.6946" stroke="#001833" stroke-linecap="square"/>
<path d="M118.312 45.1465C118.081 45.5756 117.937 46.0463 117.887 46.5317C117.837 47.017 117.883 47.5074 118.021 47.975C118.159 48.4426 118.388 48.8782 118.693 49.2568C118.998 49.6357 119.375 49.95 119.801 50.1821C120.227 50.4143 120.694 50.5597 121.176 50.6099C121.657 50.6601 122.144 50.6143 122.608 50.475C123.072 50.3358 123.505 50.1056 123.881 49.798C124.257 49.4904 124.569 49.1113 124.799 48.6821C125.768 46.8753 123.882 46.051 122.079 45.0748C120.275 44.0987 119.281 43.3418 118.312 45.1465Z" fill="#001833"/>
<path d="M110.197 43.7192L113.964 29.4652L114.857 26.0919C115.697 26.9985 116.68 27.7587 117.766 28.3415C121.708 30.4793 133.595 29.6275 135.241 21.2302C136.585 14.3826 129.367 18.3187 125.672 17.8907C119.865 17.2161 115.836 13.7733 107.884 18.1016C98.3735 23.2858 102.879 35.9945 102.879 35.9945C102.879 35.9945 107.064 34.3437 110.197 43.7192Z" fill="#001833"/>
<path opacity="0.4" d="M119.08 57.7413L114.043 57.2796L118.643 61.8012L119.08 57.7413Z" fill="black"/>
<path d="M121.248 38.9498C122.012 38.9498 122.631 38.3261 122.631 37.5565C122.631 36.7869 122.012 36.1631 121.248 36.1631C120.484 36.1631 119.865 36.7869 119.865 37.5565C119.865 38.3261 120.484 38.9498 121.248 38.9498Z" fill="#001833"/>
<path d="M129.499 38.9498C130.263 38.9498 130.882 38.3261 130.882 37.5565C130.882 36.7869 130.263 36.1631 129.499 36.1631C128.735 36.1631 128.116 36.7869 128.116 37.5565C128.116 38.3261 128.735 38.9498 129.499 38.9498Z" fill="#001833"/>
<path d="M99.0789 201.466C97.9026 214.03 92.043 225.678 82.6809 234.063C81.7405 234.906 80.7703 235.711 79.7701 236.479C77.9846 237.851 76.1096 239.101 74.1576 240.219C65.4049 245.237 55.3387 247.44 45.3084 246.531L44.9548 246.499C37.3005 245.764 29.9204 243.247 23.3966 239.147C16.8728 235.048 11.3838 229.476 7.36253 222.874C6.80442 221.955 6.27226 221.017 5.76584 220.059C2.17005 213.183 0.21134 205.559 0.0445567 197.789C-0.122018 190.019 1.50773 182.316 4.80532 175.29C13.5023 156.809 33.0037 144.88 54.3821 146.935C81.6786 149.558 101.684 173.974 99.0789 201.466Z" fill="#FAFAFA"/>
<path d="M90.5179 225.14C88.266 228.417 85.6354 231.412 82.681 234.063C81.7405 234.906 80.7704 235.711 79.7701 236.479C77.9846 237.851 76.1096 239.101 74.1576 240.219C71.2472 241.887 68.1762 243.253 64.9918 244.296L45.3084 246.531L44.9548 246.499C37.3005 245.764 29.9204 243.247 23.3966 239.147C16.8728 235.047 11.3838 229.477 7.36255 222.874C14.8019 209.13 28.0923 194.977 51.6889 191.56C74.1848 188.302 86.5482 214.709 90.5179 225.14Z" fill="#385687"/>
<path d="M54.6982 203.383L54.4471 203.4C52.0514 203.51 49.7104 202.658 47.9388 201.03C46.1669 199.401 45.1095 197.131 44.9988 194.718L43.5339 162.705C43.4789 161.51 43.658 160.316 44.0613 159.191C44.4645 158.066 45.0838 157.031 45.8836 156.147C47.4991 154.361 49.7527 153.295 52.1483 153.183C54.544 153.072 56.8856 153.923 58.6581 155.551C60.4306 157.178 61.4886 159.449 61.5997 161.862L63.0646 193.872C63.1744 196.243 62.3617 198.564 60.7991 200.34C59.2365 202.116 57.0476 203.208 54.6982 203.383Z" fill="#FFCCD7"/>
<path d="M60.049 186.642L61.6876 186.221C63.5912 185.721 65.3625 184.806 66.8752 183.539C68.388 182.272 69.6053 180.685 70.4403 178.89C71.2754 177.096 71.7078 175.138 71.7067 173.156C71.7059 171.174 71.2715 169.217 70.4348 167.423L66.2851 158.537C64.9441 155.668 62.6435 153.367 59.7864 152.037C56.9295 150.707 53.6989 150.433 50.6614 151.263C47.2343 152.201 44.3172 154.471 42.5512 157.575C40.7854 160.679 40.3152 164.362 41.2445 167.815L43.7557 177.13C44.6821 180.557 46.9125 183.477 49.9627 185.258C53.0129 187.039 56.6372 187.536 60.049 186.642Z" fill="#FFCCD7"/>
<path d="M42.177 180.65C44.3373 182.314 47.4277 181.899 49.0796 179.723C50.7318 177.547 50.3199 174.433 48.1599 172.769L45.9425 171.06C43.7825 169.396 40.6921 169.811 39.04 171.987C37.3878 174.163 37.7996 177.276 39.9597 178.941L42.177 180.65Z" fill="#FFCCD7"/>
<path d="M72.9335 176.671C74.21 182.015 73.352 189.854 66.9276 191.492C60.5032 193.13 52.5281 187.954 51.1888 182.62C49.8495 177.286 51.3165 174.307 57.7451 172.667C64.1737 171.027 71.2656 169.699 72.9335 176.671Z" fill="#001833"/>
<path fill-rule="evenodd" clip-rule="evenodd" d="M40.9327 175.416L45.1535 177.925L40.9327 175.416Z" fill="#001833"/>
<path d="M40.9327 175.416L45.1535 177.925" stroke="#001833" stroke-linecap="square"/>
<path d="M56.9854 177.495C56.8799 178.459 57.1541 179.426 57.7488 180.188C58.3433 180.951 59.2113 181.448 60.166 181.573C61.1207 181.698 62.0858 181.441 62.8544 180.857C63.6228 180.273 64.1332 179.409 64.2762 178.45C64.5377 176.422 62.489 176.342 60.4759 176.068C58.4628 175.794 57.247 175.467 56.9854 177.495Z" fill="white"/>
<path opacity="0.4" d="M62.3746 192.198L57.346 192.573L62.6027 196.262L62.3746 192.198Z" fill="black"/>
<path d="M56.366 169.471C57.1264 169.471 57.7429 168.85 57.7429 168.083C57.7429 167.317 57.1264 166.696 56.366 166.696C55.6055 166.696 54.989 167.317 54.989 168.083C54.989 168.85 55.6055 169.471 56.366 169.471Z" fill="#001833"/>
<path d="M65.9985 166.73C66.759 166.73 67.3755 166.109 67.3755 165.343C67.3755 164.577 66.759 163.956 65.9985 163.956C65.2381 163.956 64.6216 164.577 64.6216 165.343C64.6216 166.109 65.2381 166.73 65.9985 166.73Z" fill="#001833"/>
<path d="M41.3513 245.452L46.8591 249.173C46.8591 249.173 46.6143 262.409 52.392 261.702C52.392 261.702 52.4151 263.794 53.589 263.994C54.763 264.194 57.9627 259.257 57.9627 259.257C57.9627 259.257 62.3572 257.587 63.2257 253.311C64.0941 249.036 64.2531 238.937 62.8971 238.176C61.5411 237.415 48.1628 237.082 48.1628 237.082C48.1628 237.082 42.6089 237.761 41.3513 245.452Z" fill="#FFCCD7"/>
<path d="M50.6427 235.391L28.4335 227.131" stroke="#FAFAFA" stroke-linecap="square"/>
<path d="M32.8425 228.366L45.3042 213.085" stroke="#FAFAFA" stroke-linecap="square"/>
<path d="M41.3179 246.025C41.3179 246.025 40.7382 237.99 51.0466 235.515" stroke="#FAFAFA" stroke-linecap="square"/>
<path d="M62.0873 163.214L65.1426 170.46L62.5896 171.569" stroke="#001833" stroke-linecap="square"/>
</svg>
