<svg width="86" height="83" viewBox="0 0 86 83" fill="none" xmlns="http://www.w3.org/2000/svg">
<g clip-path="url(#clip0_470_7726)">
<path d="M82.9 26.8V7.8C84.2 7.1 85.1 5.7 85.1 4.2C85.1 1.9 83.2 0 80.9 0C78.6 0 76.7 1.9 76.7 4.2C76.7 5.8 77.6 7.1 78.9 7.8V24.5C78.5 24.4 78.1 24.3 77.7 24.2C77.3 19.9 73.7 16.6 69.4 16.6H16.7C12.3 16.6 8.8 19.9 8.4 24.2C8 24.3 7.6 24.4 7.2 24.5V7.8C8.5 7.1 9.4 5.7 9.4 4.2C9.4 1.9 7.5 0 5.2 0C2.9 0 1 1.8 1 4.1C1 5.7 1.9 7 3.2 7.7V26.8C1.2 28.7 0 31.3 0 34.2V52C0 57 3.6 61.2 8.3 62.1V63.2L6.8 78.9C6.6 81.2 9.1 82.8 11 81.6L26.9 72.1H69.3C73.9 72.1 77.7 68.3 77.7 63.7V62C82.4 61.2 86 57 86 52V34.2C86 31.3 84.8 28.7 82.9 26.8ZM73.7 63.8C73.7 66.2 71.7 68.2 69.3 68.2H16.7C14.3 68.2 12.3 66.2 12.3 63.8V24.9C12.3 22.5 14.3 20.5 16.7 20.5H69.4C71.8 20.5 73.8 22.5 73.8 24.9V63.8H73.7Z" fill="black"/>
<path d="M38.7004 37.6998C38.7004 32.1998 34.2004 27.7998 28.8004 27.7998C23.3004 27.7998 18.9004 32.2998 18.9004 37.6998C18.9004 43.1998 23.4004 47.5998 28.8004 47.5998C34.2004 47.5998 38.7004 43.1998 38.7004 37.6998ZM24.6004 42.4998C23.7004 42.4998 23.0004 41.7998 23.0004 40.8998C23.0004 39.9998 23.7004 39.2998 24.6004 39.2998C25.5004 39.2998 26.2004 39.9998 26.2004 40.8998C26.2004 41.7998 25.4004 42.4998 24.6004 42.4998ZM30.7004 40.6998C28.2004 40.6998 26.1004 38.5998 26.1004 36.0998C26.1004 33.5998 28.2004 31.4998 30.7004 31.4998C33.2004 31.4998 35.3004 33.5998 35.3004 36.0998C35.3004 38.5998 33.3004 40.6998 30.7004 40.6998Z" fill="black"/>
<path d="M57.3004 27.7002C51.8004 27.7002 47.4004 32.2002 47.4004 37.6002C47.4004 43.1002 51.9004 47.5002 57.3004 47.5002C62.8004 47.5002 67.2004 43.0002 67.2004 37.6002C67.2004 32.2002 62.7004 27.7002 57.3004 27.7002ZM53.1004 42.5002C52.2004 42.5002 51.5004 41.8002 51.5004 40.9002C51.5004 40.0002 52.2004 39.3002 53.1004 39.3002C54.0004 39.3002 54.7004 40.0002 54.7004 40.9002C54.7004 41.8002 53.9004 42.5002 53.1004 42.5002ZM59.2004 40.7002C56.7004 40.7002 54.6004 38.6002 54.6004 36.1002C54.6004 33.6002 56.7004 31.5002 59.2004 31.5002C61.7004 31.5002 63.8004 33.6002 63.8004 36.1002C63.8004 38.6002 61.8004 40.7002 59.2004 40.7002Z" fill="black"/>
<path d="M42.9992 56.2004C39.4992 56.2004 36.6992 53.4004 36.6992 49.9004H33.6992C33.6992 55.0004 37.8992 59.2004 42.9992 59.2004C48.0992 59.2004 52.2992 55.0004 52.2992 49.9004H49.2992C49.2992 53.3004 46.4992 56.2004 42.9992 56.2004Z" fill="black"/>
</g>
<defs>
<clipPath id="clip0_470_7726">
<rect width="86" height="82.01" fill="white"/>
</clipPath>
</defs>
</svg>
