<svg width="32" height="31" viewBox="0 0 32 31" fill="none" xmlns="http://www.w3.org/2000/svg">
<path d="M22.0736 13.5665C22.8188 14.6164 23.009 17.7794 19.2963 20.5163C15.7273 23.1473 12.9328 22.0187 12.1061 20.8541C11.1222 19.468 11.1366 15.9697 14.4423 13.5328C17.7499 11.0945 21.0908 12.1821 22.0736 13.5665Z" stroke="url(#paint0_linear_49_692)" stroke-width="9.59964"/>
<path d="M24.7966 8.99512C28.7425 13.7603 27.7233 19.5222 22.2342 24.0619C16.5823 28.3088 10.4514 27.2843 7.22884 23.1073C4.00631 18.9303 5.18821 11.987 10.1928 8.29774C15.1974 4.60846 21.8278 4.81281 24.7966 8.99512Z" fill="url(#paint1_linear_49_692)"/>
<path d="M20.7028 11.4772C21.1135 12.0558 21.3442 12.962 20.9317 14.3122C20.508 15.6989 19.4389 17.3113 17.6809 18.6073C13.8721 21.4151 11.0172 20.2011 10.251 19.1218C9.33099 17.8257 9.28475 14.2351 12.8287 11.6225C16.3746 9.00855 19.7839 10.1827 20.7028 11.4772Z" stroke="url(#paint2_linear_49_692)" stroke-width="9.59964"/>
<ellipse cx="11.2012" cy="8.70578" rx="11.2012" ry="8.70578" transform="matrix(0.804926 -0.593375 0.578848 0.815436 1.01801 14.3748)" fill="#FFD93B"/>
<path d="M20.4141 10.8941C20.9252 11.6141 21.1038 12.72 20.6386 14.1288C20.1748 15.5335 19.1075 17.0601 17.4693 18.2678C15.831 19.4754 14.0743 20.0307 12.6199 20.04C11.1614 20.0494 10.1865 19.5305 9.67537 18.8104C9.16424 18.0904 8.98567 16.9845 9.45084 15.5757C9.91466 14.171 10.9819 12.6444 12.6202 11.4367C14.2584 10.2291 16.0152 9.67379 17.4695 9.66445C18.9281 9.65509 19.903 10.174 20.4141 10.8941Z" stroke="url(#paint3_linear_49_692)" stroke-width="4.26651"/>
<g filter="url(#filter0_d_49_692)">
<g filter="url(#filter1_d_49_692)">
<path d="M17.9774 14.2262L18.7143 14.0742L18.0911 15.8855L17.4678 17.6969L16.6859 17.9797L16.9143 17.3159L17.9774 14.2262Z" fill="url(#paint4_linear_49_692)"/>
<path d="M17.9774 14.2262L18.7143 14.0742L19.8433 13.2679C19.4456 13.3902 19.0578 13.394 19.0578 13.394L17.9774 14.2262Z" fill="url(#paint5_linear_49_692)"/>
<path d="M16.6859 17.9797L16.9143 17.3159L13.6481 18.5289L13.4119 19.2155L16.6859 17.9797Z" fill="url(#paint6_linear_49_692)"/>
</g>
<g filter="url(#filter2_d_49_692)">
<path d="M12.4798 13.7016L11.9287 13.2737L10.6294 17.0498L11.1568 17.4755L11.3852 16.8118L12.4798 13.7016Z" fill="url(#paint7_linear_49_692)"/>
<path d="M12.4798 13.7016L11.9287 13.2737L13.527 12.6877L13.7905 12.9005L14.054 13.1134L12.4798 13.7016Z" fill="url(#paint8_linear_49_692)"/>
<path d="M11.1568 17.4755L11.3852 16.8118L13.6482 18.5287L13.4119 19.2153L11.1568 17.4755Z" fill="url(#paint9_linear_49_692)"/>
</g>
<path d="M15.7355 12.2893C15.9271 12.1005 16.2203 12.0609 16.3899 12.2011L16.6971 12.4549L16.0027 13.1391L15.6955 12.8853C15.5259 12.7451 15.5438 12.4781 15.7355 12.2893Z" fill="url(#paint10_linear_49_692)"/>
<path d="M16.2719 13.3444L16.6581 13.5025C16.8713 13.5897 16.9278 13.8369 16.7841 14.0543C16.6403 14.2716 16.3507 14.3771 16.1374 14.2899L15.7512 14.1318L16.2719 13.3444Z" fill="url(#paint11_linear_49_692)"/>
<path d="M17.9993 12.1509C17.8858 12.3779 17.6058 12.5168 17.3745 12.4608C17.1432 12.4048 17.0476 12.1751 17.1612 11.948C17.2748 11.721 17.5547 11.5822 17.786 11.6382C18.0174 11.6942 18.1129 11.9239 17.9993 12.1509Z" fill="url(#paint12_linear_49_692)"/>
<path d="M14.3708 14.6517C14.4844 14.4246 14.7643 14.2858 14.9957 14.3418L15.4148 14.4432L15.0032 15.2658L14.5842 15.1644C14.3528 15.1084 14.2573 14.8787 14.3708 14.6517Z" fill="url(#paint13_linear_49_692)"/>
<path d="M14.6417 16.6148C14.873 16.6708 15.153 16.532 15.2666 16.305L15.4723 15.8937L15.0532 15.7922C14.8219 15.7362 14.542 15.8751 14.4284 16.1021C14.3148 16.3291 14.4104 16.5588 14.6417 16.6148Z" fill="url(#paint14_linear_49_692)"/>
</g>
<g filter="url(#filter3_f_49_692)">
<path d="M25.8012 14.2386L27.1989 16.5085C27.632 13.9149 26.6851 11.839 26.3129 11.2631C26.0184 10.7005 25.472 9.91026 24.8285 9.04318C23.1207 6.32225 19.5205 3.89547 13.9241 5.7076C7.26797 8.04035 5.06169 13.5374 4.82501 15.9647L25.2322 13.9729L25.8012 14.2386Z" fill="url(#paint15_linear_49_692)" fill-opacity="0.3"/>
</g>
<defs>
<filter id="filter0_d_49_692" x="10.6294" y="11.6258" width="9.21387" height="8.65629" filterUnits="userSpaceOnUse" color-interpolation-filters="sRGB">
<feFlood flood-opacity="0" result="BackgroundImageFix"/>
<feColorMatrix in="SourceAlpha" type="matrix" values="0 0 0 0 0 0 0 0 0 0 0 0 0 0 0 0 0 0 127 0" result="hardAlpha"/>
<feOffset dy="1.06663"/>
<feComposite in2="hardAlpha" operator="out"/>
<feColorMatrix type="matrix" values="0 0 0 0 1 0 0 0 0 0.937917 0 0 0 0 0.379167 0 0 0 1 0"/>
<feBlend mode="normal" in2="BackgroundImageFix" result="effect1_dropShadow_49_692"/>
<feBlend mode="normal" in="SourceGraphic" in2="effect1_dropShadow_49_692" result="shape"/>
</filter>
<filter id="filter1_d_49_692" x="12.9912" y="13.2679" width="7.27286" height="6.78897" filterUnits="userSpaceOnUse" color-interpolation-filters="sRGB">
<feFlood flood-opacity="0" result="BackgroundImageFix"/>
<feColorMatrix in="SourceAlpha" type="matrix" values="0 0 0 0 0 0 0 0 0 0 0 0 0 0 0 0 0 0 127 0" result="hardAlpha"/>
<feOffset dy="0.420732"/>
<feGaussianBlur stdDeviation="0.210366"/>
<feComposite in2="hardAlpha" operator="out"/>
<feColorMatrix type="matrix" values="0 0 0 0 0 0 0 0 0 0 0 0 0 0 0 0 0 0 0.1 0"/>
<feBlend mode="normal" in2="BackgroundImageFix" result="effect1_dropShadow_49_692"/>
<feBlend mode="normal" in="SourceGraphic" in2="effect1_dropShadow_49_692" result="shape"/>
</filter>
<filter id="filter2_d_49_692" x="10.2087" y="12.6877" width="4.26599" height="7.36911" filterUnits="userSpaceOnUse" color-interpolation-filters="sRGB">
<feFlood flood-opacity="0" result="BackgroundImageFix"/>
<feColorMatrix in="SourceAlpha" type="matrix" values="0 0 0 0 0 0 0 0 0 0 0 0 0 0 0 0 0 0 127 0" result="hardAlpha"/>
<feOffset dy="0.420732"/>
<feGaussianBlur stdDeviation="0.210366"/>
<feComposite in2="hardAlpha" operator="out"/>
<feColorMatrix type="matrix" values="0 0 0 0 0 0 0 0 0 0 0 0 0 0 0 0 0 0 0.1 0"/>
<feBlend mode="normal" in2="BackgroundImageFix" result="effect1_dropShadow_49_692"/>
<feBlend mode="normal" in="SourceGraphic" in2="effect1_dropShadow_49_692" result="shape"/>
</filter>
<filter id="filter3_f_49_692" x="0.558505" y="0.814303" width="31.018" height="19.9607" filterUnits="userSpaceOnUse" color-interpolation-filters="sRGB">
<feFlood flood-opacity="0" result="BackgroundImageFix"/>
<feBlend mode="normal" in="SourceGraphic" in2="BackgroundImageFix" result="shape"/>
<feGaussianBlur stdDeviation="2.13325" result="effect1_foregroundBlur_49_692"/>
</filter>
<linearGradient id="paint0_linear_49_692" x1="25.3863" y1="9.93223" x2="10.4604" y2="26.3974" gradientUnits="userSpaceOnUse">
<stop stop-color="#FDF8CE"/>
<stop offset="0.0550575" stop-color="#F2E158"/>
<stop offset="0.170676" stop-color="#FCF5AF"/>
<stop offset="0.309086" stop-color="#ECD42F"/>
<stop offset="0.491314" stop-color="#E9B00C"/>
<stop offset="0.704021" stop-color="#ECB600"/>
<stop offset="0.78935" stop-color="#E8CF29"/>
<stop offset="0.843399" stop-color="#EBD431"/>
<stop offset="0.909367" stop-color="#E2C317"/>
<stop offset="1" stop-color="#E9D14F"/>
</linearGradient>
<linearGradient id="paint1_linear_49_692" x1="25.1352" y1="10.0411" x2="8.66764" y2="26.3595" gradientUnits="userSpaceOnUse">
<stop stop-color="#EEBB5C"/>
<stop offset="0.0550575" stop-color="#FDEE48"/>
<stop offset="0.170676" stop-color="#E8BB06"/>
<stop offset="0.309086" stop-color="#D57B01"/>
<stop offset="0.491314" stop-color="#C86101"/>
<stop offset="0.660555" stop-color="#D88C2D"/>
<stop offset="0.771761" stop-color="#E8BE29"/>
<stop offset="0.815114" stop-color="#E8BE29"/>
<stop offset="0.881945" stop-color="#E8AE0E"/>
<stop offset="0.930202" stop-color="#D98317"/>
<stop offset="1" stop-color="#EBAE4E"/>
</linearGradient>
<linearGradient id="paint2_linear_49_692" x1="24.0156" y1="7.84279" x2="8.79669" y2="24.8277" gradientUnits="userSpaceOnUse">
<stop stop-color="#FDF8CE"/>
<stop offset="0.0550575" stop-color="#F2E158"/>
<stop offset="0.170676" stop-color="#FCF5AF"/>
<stop offset="0.309086" stop-color="#ECD42F"/>
<stop offset="0.491314" stop-color="#E9B00C"/>
<stop offset="0.704021" stop-color="#ECB600"/>
<stop offset="0.78935" stop-color="#E8CF29"/>
<stop offset="0.843399" stop-color="#EBD431"/>
<stop offset="0.909367" stop-color="#E2C317"/>
<stop offset="1" stop-color="#E9D14F"/>
</linearGradient>
<linearGradient id="paint3_linear_49_692" x1="11.4811" y1="9.29967" x2="19.4721" y2="19.6864" gradientUnits="userSpaceOnUse">
<stop stop-color="#E4991A"/>
<stop offset="0.474971" stop-color="#EAAA2E" stop-opacity="0"/>
<stop offset="1" stop-color="#FFF27B" stop-opacity="0"/>
</linearGradient>
<linearGradient id="paint4_linear_49_692" x1="17.7175" y1="13.0741" x2="17.1267" y2="19.5542" gradientUnits="userSpaceOnUse">
<stop stop-color="#E19D37"/>
<stop offset="0.494792" stop-color="#EEA230"/>
<stop offset="1" stop-color="#DB9224"/>
</linearGradient>
<linearGradient id="paint5_linear_49_692" x1="17.7175" y1="13.0741" x2="17.1267" y2="19.5542" gradientUnits="userSpaceOnUse">
<stop stop-color="#E19D37"/>
<stop offset="0.494792" stop-color="#EEA230"/>
<stop offset="1" stop-color="#DB9224"/>
</linearGradient>
<linearGradient id="paint6_linear_49_692" x1="17.7175" y1="13.0741" x2="17.1267" y2="19.5542" gradientUnits="userSpaceOnUse">
<stop stop-color="#E19D37"/>
<stop offset="0.494792" stop-color="#EEA230"/>
<stop offset="1" stop-color="#DB9224"/>
</linearGradient>
<linearGradient id="paint7_linear_49_692" x1="13.883" y1="12.7201" x2="13.2918" y2="19.2044" gradientUnits="userSpaceOnUse">
<stop stop-color="#E19D37"/>
<stop offset="0.494792" stop-color="#EEA230"/>
<stop offset="1" stop-color="#DB9224"/>
</linearGradient>
<linearGradient id="paint8_linear_49_692" x1="13.883" y1="12.7201" x2="13.2918" y2="19.2044" gradientUnits="userSpaceOnUse">
<stop stop-color="#E19D37"/>
<stop offset="0.494792" stop-color="#EEA230"/>
<stop offset="1" stop-color="#DB9224"/>
</linearGradient>
<linearGradient id="paint9_linear_49_692" x1="13.883" y1="12.7201" x2="13.2918" y2="19.2044" gradientUnits="userSpaceOnUse">
<stop stop-color="#E19D37"/>
<stop offset="0.494792" stop-color="#EEA230"/>
<stop offset="1" stop-color="#DB9224"/>
</linearGradient>
<linearGradient id="paint10_linear_49_692" x1="16.3899" y1="12.2011" x2="15.7722" y2="12.9486" gradientUnits="userSpaceOnUse">
<stop stop-color="#E19D37"/>
<stop offset="0.494792" stop-color="#EEA230"/>
<stop offset="1" stop-color="#DB9224"/>
</linearGradient>
<linearGradient id="paint11_linear_49_692" x1="16.6581" y1="13.5025" x2="16.3074" y2="14.3594" gradientUnits="userSpaceOnUse">
<stop stop-color="#E19D37"/>
<stop offset="0.494792" stop-color="#EEA230"/>
<stop offset="1" stop-color="#DB9224"/>
</linearGradient>
<linearGradient id="paint12_linear_49_692" x1="17.786" y1="11.6382" x2="17.5752" y2="12.5093" gradientUnits="userSpaceOnUse">
<stop stop-color="#E19D37"/>
<stop offset="0.494792" stop-color="#EEA230"/>
<stop offset="1" stop-color="#DB9224"/>
</linearGradient>
<linearGradient id="paint13_linear_49_692" x1="14.9957" y1="14.3418" x2="14.7848" y2="15.213" gradientUnits="userSpaceOnUse">
<stop stop-color="#E19D37"/>
<stop offset="0.494792" stop-color="#EEA230"/>
<stop offset="1" stop-color="#DB9224"/>
</linearGradient>
<linearGradient id="paint14_linear_49_692" x1="15.0532" y1="15.7922" x2="14.8424" y2="16.6634" gradientUnits="userSpaceOnUse">
<stop stop-color="#E19D37"/>
<stop offset="0.494792" stop-color="#EEA230"/>
<stop offset="1" stop-color="#DB9224"/>
</linearGradient>
<linearGradient id="paint15_linear_49_692" x1="12.2615" y1="15.0709" x2="11.9518" y2="4.2343" gradientUnits="userSpaceOnUse">
<stop stop-color="white"/>
<stop offset="0.105858" stop-color="white"/>
<stop offset="0.21696" stop-color="white" stop-opacity="0.961194"/>
<stop offset="1" stop-color="white" stop-opacity="0"/>
</linearGradient>
</defs>
</svg>
