<svg width="100" height="100" viewBox="0 0 100 100" fill="none" xmlns="http://www.w3.org/2000/svg">
    <defs>
        <linearGradient id="paint0_linear_84_158" x1="91.4636" y1="46.3972" x2="15.7522"
            y2="46.3972" gradientUnits="userSpaceOnUse">
            <stop stop-color="white" stop-opacity="0" />
            <stop offset="0.497674" stop-color="white" stop-opacity="0.8" />
            <stop offset="1" stop-color="white" stop-opacity="0" />
        </linearGradient>
        <linearGradient id="paint1_linear_84_158" x1="82.7758" y1="89.808" x2="10.3701" y2="10.3936"
            gradientUnits="userSpaceOnUse">
            <stop stop-color="white" stop-opacity="0" />
            <stop offset="0.497674" stop-color="white" stop-opacity="0.8" />
            <stop offset="1" stop-color="white" stop-opacity="0" />
        </linearGradient>
        <linearGradient id="paint2_linear_84_158" x1="49.9999" y1="24.3131" x2="49.9999"
            y2="75.6868" gradientUnits="userSpaceOnUse">
            <stop stop-color="white" stop-opacity="0" />
            <stop offset="0.497674" stop-color="white" stop-opacity="0.8" />
            <stop offset="1" stop-color="white" stop-opacity="0" />
        </linearGradient>
    </defs>
    <path opacity="0.15"
        d="M46.4963 91.3646C25.5892 91.3646 8.6406 74.4161 8.6406 53.5089C8.6406 32.6018 25.5892 15.6532 46.4963 15.6532C67.4035 15.6532 84.3521 32.6018 84.3521 53.5089C84.3521 74.4161 67.4035 91.3646 46.4963 91.3646ZM46.4963 22.4687C29.3533 22.4687 15.4561 36.3659 15.4561 53.5089C15.4561 70.652 29.3533 84.5492 46.4963 84.5492C63.6394 84.5492 77.5366 70.652 77.5366 53.5089C77.5366 36.3659 63.6394 22.4687 46.4963 22.4687Z"
        fill="url(#paint0_linear_84_158)" fill-opacity="0.9" />
    <path opacity="0.15"
        d="M-9.83648e-07 50C2.6867e-06 22.3858 22.3858 -9.29541e-07 50 2.11563e-06C77.6142 5.1608e-06 100 22.3858 100 50C100 77.6142 77.6142 100 50 100C22.3858 100 -4.65399e-06 77.6142 -9.83648e-07 50ZM90.9981 50C90.9981 27.3574 72.6426 9.00189 50 9.00189C27.3574 9.00188 9.00189 27.3574 9.00189 50C9.00189 72.6426 27.3574 90.9981 50 90.9981C72.6426 90.9981 90.9981 72.6426 90.9981 50Z"
        fill="url(#paint1_linear_84_158)" fill-opacity="0.9" />
    <ellipse opacity="0.15" cx="49.9999" cy="49.9999" rx="25.6868" ry="25.6868"
        transform="rotate(-180 49.9999 49.9999)" fill="url(#paint2_linear_84_158)"
        fill-opacity="0.9" />
</svg>
