<svg width="350" height="192" viewBox="0 0 350 192" fill="none" xmlns="http://www.w3.org/2000/svg">
<g clip-path="url(#clip0_430_7703)">
<rect width="350" height="192" rx="30" fill="white"/>
<rect width="350" height="192" rx="30" fill="#1D4077"/>
<path opacity="0.15" d="M-61.5334 -23.5053C-41.2062 -73.0111 15.4047 -96.6651 64.9105 -76.3379C114.416 -56.0108 138.07 0.600081 117.743 50.1059C97.4159 99.6117 40.8051 123.266 -8.70073 102.939C-58.2066 82.6114 -81.8605 26.0005 -61.5334 -23.5053ZM101.605 43.4795C118.272 2.8866 98.877 -43.5321 58.2841 -60.1997C17.6912 -76.8672 -28.7276 -57.4718 -45.3951 -16.8789C-62.0626 23.714 -42.6672 70.1327 -2.07433 86.8003C38.5186 103.468 84.9373 84.0724 101.605 43.4795Z" fill="url(#paint0_linear_430_7703)" fill-opacity="0.9"/>
<path opacity="0.15" d="M81.6206 -93.387C147.008 -66.5388 178.25 8.23304 151.402 73.6205C124.554 139.008 49.782 170.25 -15.6055 143.402C-80.993 116.554 -112.235 41.782 -85.387 -23.6055C-58.5388 -88.993 16.2331 -120.235 81.6206 -93.387ZM-6.85328 122.087C46.762 144.101 108.072 118.484 130.087 64.8684C152.101 11.2531 126.484 -50.057 72.8684 -72.0715C19.2531 -94.086 -42.057 -68.4686 -64.0715 -14.8533C-86.086 38.762 -60.4686 100.072 -6.85328 122.087Z" fill="url(#paint1_linear_430_7703)" fill-opacity="0.9"/>
<circle opacity="0.15" cx="33.0088" cy="25.0081" r="65.7513" transform="rotate(-67.6769 33.0088 25.0081)" fill="url(#paint2_linear_430_7703)" fill-opacity="0.9"/>
</g>
<defs>
<linearGradient id="paint0_linear_430_7703" x1="1.2247" y1="126.692" x2="74.8359" y2="-52.5841" gradientUnits="userSpaceOnUse">
<stop stop-color="white" stop-opacity="0"/>
<stop offset="0.497674" stop-color="white" stop-opacity="0.8"/>
<stop offset="1" stop-color="white" stop-opacity="0"/>
</linearGradient>
<linearGradient id="paint1_linear_430_7703" x1="-93.1199" y1="63.9133" x2="165.322" y2="-30.324" gradientUnits="userSpaceOnUse">
<stop stop-color="white" stop-opacity="0"/>
<stop offset="0.497674" stop-color="white" stop-opacity="0.8"/>
<stop offset="1" stop-color="white" stop-opacity="0"/>
</linearGradient>
<linearGradient id="paint2_linear_430_7703" x1="33.0088" y1="-40.7432" x2="33.0088" y2="90.7593" gradientUnits="userSpaceOnUse">
<stop stop-color="white" stop-opacity="0"/>
<stop offset="0.497674" stop-color="white" stop-opacity="0.8"/>
<stop offset="1" stop-color="white" stop-opacity="0"/>
</linearGradient>
<clipPath id="clip0_430_7703">
<rect width="350" height="192" rx="30" fill="white"/>
</clipPath>
</defs>
</svg>
