<svg width="25" height="25" viewBox="0 0 25 25" fill="none" xmlns="http://www.w3.org/2000/svg">
<path fill-rule="evenodd" clip-rule="evenodd" d="M1.30212 6.25004C1.30212 3.51738 3.51738 1.30212 6.25004 1.30212H18.75C21.4827 1.30212 23.698 3.51738 23.698 6.25004V18.75C23.698 21.4827 21.4827 23.698 18.75 23.698H6.25004C3.51738 23.698 1.30212 21.4827 1.30212 18.75V6.25004ZM6.25004 2.86462C4.38033 2.86462 2.86462 4.38033 2.86462 6.25004V15.1042L5.49122 16.8553C7.14381 17.957 9.34431 17.7391 10.7487 16.3347L14.2513 12.8321C15.6558 11.4276 17.8563 11.2098 19.5089 12.3115L21.989 13.9649C22.0396 13.9986 22.0885 14.0344 22.1355 14.072V6.25004C22.1355 4.38033 20.6198 2.86462 18.75 2.86462H6.25004ZM8.85421 11.4584C10.2924 11.4584 11.4584 10.2924 11.4584 8.85421C11.4584 7.41597 10.2924 6.25004 8.85421 6.25004C7.41597 6.25004 6.25004 7.41597 6.25004 8.85421C6.25004 10.2924 7.41597 11.4584 8.85421 11.4584Z" fill="#1D4077"/>
</svg>
