<svg width="355" height="96" viewBox="0 0 355 96" fill="none" xmlns="http://www.w3.org/2000/svg">
<path d="M58.032 18.928C57.4347 19.9093 56.816 20.6347 56.176 21.104C55.5787 21.5307 54.7893 21.744 53.808 21.744C52.8693 21.744 51.8453 21.424 50.736 20.784C49.6693 20.1013 48.4107 19.376 46.96 18.608C45.5093 17.84 43.8453 17.136 41.968 16.496C40.0907 15.8133 37.8933 15.472 35.376 15.472C30.9387 15.472 27.6107 16.4747 25.392 18.48C23.1733 20.4427 22.064 23.024 22.064 26.224C22.064 28.272 22.6613 29.9787 23.856 31.344C25.0933 32.6667 26.6933 33.8187 28.656 34.8C30.6613 35.7813 32.9227 36.656 35.44 37.424C37.9573 38.192 40.5387 39.0453 43.184 39.984C45.8293 40.88 48.4107 41.9467 50.928 43.184C53.4453 44.4213 55.6853 45.9787 57.648 47.856C59.6533 49.7333 61.2533 52.0373 62.448 54.768C63.6853 57.456 64.304 60.7413 64.304 64.624C64.304 68.848 63.5573 72.816 62.064 76.528C60.6133 80.1973 58.5013 83.4187 55.728 86.192C52.9547 88.9227 49.52 91.0773 45.424 92.656C41.3707 94.2347 36.7627 95.024 31.6 95.024C28.656 95.024 25.712 94.7253 22.768 94.128C19.8667 93.5307 17.0507 92.6987 14.32 91.632C11.632 90.5653 9.09333 89.2853 6.704 87.792C4.31467 86.2987 2.224 84.6347 0.432 82.8L6.064 73.712C6.53333 73.0293 7.152 72.4747 7.92 72.048C8.688 71.5787 9.49867 71.344 10.352 71.344C11.504 71.344 12.72 71.7707 14 72.624C15.28 73.4773 16.752 74.416 18.416 75.44C20.08 76.464 22 77.4027 24.176 78.256C26.3947 79.1093 29.04 79.536 32.112 79.536C36.592 79.536 40.048 78.512 42.48 76.464C44.9547 74.416 46.192 71.3653 46.192 67.312C46.192 64.9653 45.5733 63.0667 44.336 61.616C43.1413 60.1653 41.5627 58.9493 39.6 57.968C37.6373 56.9867 35.3973 56.1547 32.88 55.472C30.3627 54.7467 27.7813 53.9573 25.136 53.104C22.4907 52.2507 19.9093 51.2267 17.392 50.032C14.8747 48.8373 12.6347 47.2587 10.672 45.296C8.70933 43.3333 7.10933 40.9013 5.872 38C4.67733 35.0987 4.08 31.4933 4.08 27.184C4.08 23.728 4.76267 20.3787 6.128 17.136C7.49333 13.8933 9.49867 11.0133 12.144 8.49599C14.7893 5.97866 18.032 3.95199 21.872 2.41599C25.7547 0.879992 30.192 0.111992 35.184 0.111992C40.7733 0.111992 45.936 0.986659 50.672 2.73599C55.4507 4.44266 59.4827 6.832 62.768 9.904L58.032 18.928ZM151.636 16.624H124.5V94H105.236V16.624H78.1V1.13599H151.636V16.624ZM190.166 16.176V40.048H221.142V54.576H190.166V78.96H229.974V94H170.838V1.13599H229.974V16.176H190.166ZM354.418 1.13599V94H337.458V36.976C337.458 35.7813 337.479 34.5013 337.522 33.136C337.607 31.7707 337.735 30.384 337.906 28.976L311.346 79.344C309.895 82.1173 307.655 83.504 304.626 83.504H301.938C300.445 83.504 299.122 83.1627 297.97 82.48C296.818 81.7547 295.901 80.7093 295.218 79.344L268.53 28.784C268.658 30.2773 268.765 31.728 268.85 33.136C268.935 34.5013 268.978 35.7813 268.978 36.976V94H252.018V1.13599H266.61C267.421 1.13599 268.146 1.15733 268.786 1.2C269.426 1.24266 269.981 1.37066 270.45 1.58399C270.962 1.75466 271.41 2.05333 271.794 2.48C272.221 2.86399 272.626 3.41866 273.01 4.144L298.994 53.68C299.805 55.1733 300.551 56.7093 301.234 58.288C301.959 59.8667 302.642 61.488 303.282 63.152C303.922 61.4453 304.583 59.7813 305.266 58.16C305.991 56.5387 306.759 54.9813 307.57 53.488L333.362 4.144C333.746 3.41866 334.151 2.86399 334.578 2.48C335.005 2.05333 335.453 1.75466 335.922 1.58399C336.434 1.37066 336.989 1.24266 337.586 1.2C338.226 1.15733 338.973 1.13599 339.826 1.13599H354.418Z" fill="#28303F"/>
</svg>
