<svg width="28" height="28" viewBox="0 0 28 28" fill="none" xmlns="http://www.w3.org/2000/svg">
<path d="M13.9997 4.375C11.5834 4.375 9.62468 6.33375 9.62468 8.75C9.62468 11.1662 11.5834 13.125 13.9997 13.125C16.4159 13.125 18.3747 11.1662 18.3747 8.75C18.3747 6.33375 16.4159 4.375 13.9997 4.375Z" fill="white"/>
<path d="M9.33301 15.4583C6.91676 15.4583 4.95801 17.4171 4.95801 19.8333V21.2197C4.95801 22.0984 5.59487 22.8477 6.46216 22.9893C11.4541 23.8043 16.5452 23.8043 21.5372 22.9893C22.4045 22.8477 23.0413 22.0984 23.0413 21.2197V19.8333C23.0413 17.4171 21.0826 15.4583 18.6663 15.4583H18.2687C18.0534 15.4583 17.8395 15.4924 17.6349 15.5592L16.6252 15.8889C14.9192 16.446 13.0802 16.446 11.3742 15.8889L10.3644 15.5592C10.1598 15.4924 9.94593 15.4583 9.73069 15.4583H9.33301Z" fill="white"/>
</svg>
